<?xml version="1.0" standalone="no"?>
<!DOCTYPE svg PUBLIC "-//W3C//DTD SVG 20010904//EN"
 "http://www.w3.org/TR/2001/REC-SVG-20010904/DTD/svg10.dtd">
<svg version="1.0" xmlns="http://www.w3.org/2000/svg"
 width="108.000000pt" height="108.000000pt" viewBox="0 0 108.000000 108.000000"
 preserveAspectRatio="xMidYMid meet">

<g transform="translate(0.000000,108.000000) scale(0.100000,-0.100000)"
fill="#000000" stroke="none">
<path d="M875 900 c-3 -6 1 -7 9 -4 18 7 21 14 7 14 -6 0 -13 -4 -16 -10z"/>
<path d="M130 665 l0 -215 25 0 c25 0 25 1 25 90 l0 90 44 0 c36 0 47 -5 61
-26 25 -38 146 -384 139 -395 -4 -7 7 -9 27 -7 32 3 35 7 58 71 l24 68 81 -3
81 -3 26 -65 c22 -55 30 -65 52 -68 15 -2 27 -1 27 1 0 3 -36 97 -80 210 -44
113 -80 210 -80 216 0 6 -13 11 -28 11 -28 0 -30 -5 -87 -162 -32 -90 -61
-166 -64 -170 -4 -4 -33 69 -66 162 -32 94 -63 170 -69 170 -6 0 1 8 17 18 15
10 34 27 42 38 21 27 18 93 -5 131 -24 39 -67 53 -172 53 l-78 0 0 -215z m198
139 c18 -21 22 -34 18 -58 -10 -51 -36 -68 -103 -70 l-58 -1 -3 69 c-4 98 -3
100 66 93 45 -5 62 -11 80 -33z m289 -422 c-32 -2 -61 -1 -63 1 -3 2 10 43 28
91 l31 88 32 -89 32 -88 -60 -3z"/>
<path d="M877 849 c7 -7 15 -10 18 -7 3 3 -2 9 -12 12 -14 6 -15 5 -6 -5z"/>
</g>
</svg>
